<svg width="42" height="42" viewBox="0 0 42 42" fill="none" xmlns="http://www.w3.org/2000/svg">
<circle cx="21" cy="21" r="16" fill="black"/>
<mask id="mask0_12_11" style="mask-type:alpha" maskUnits="userSpaceOnUse" x="2" y="4" width="36" height="36">
<circle cx="20" cy="22" r="18" fill="#D9D9D9"/>
</mask>
<g mask="url(#mask0_12_11)">
<path d="M27.0078 20.125C24.75 20.125 24.4375 22.375 24.4375 22.375H29.2344C29.2344 22.375 29.2656 20.125 27.0078 20.125ZM16.125 22.375H11.875V26.2812H15.9141C16.5234 26.2656 17.6641 26.0937 17.6641 24.3828C17.6641 22.3516 16.125 22.375 16.125 22.375Z" fill="white"/>
<path d="M20.125 4.375C10.4609 4.375 2.625 12.2109 2.625 21.875C2.625 31.5391 10.4609 39.375 20.125 39.375C29.7891 39.375 37.625 31.5391 37.625 21.875C37.625 12.2109 29.7891 4.375 20.125 4.375ZM23.8125 15.125H29.8359V16.9219H23.8125V15.125ZM20.7656 24.5625C20.7656 29.0156 16.125 28.875 16.125 28.875H8.53125V14.2656H16.125C18.4375 14.2656 20.2578 15.5391 20.2578 18.1562C20.2578 20.7734 18.0312 20.9375 18.0312 20.9375C20.9687 20.9375 20.7656 24.5625 20.7656 24.5625ZM32.0312 24.3203H24.4609C24.4609 27.0312 27.0312 26.8594 27.0312 26.8594C29.4609 26.8594 29.375 25.2891 29.375 25.2891H31.9453C31.9453 29.4609 26.9453 29.1719 26.9453 29.1719C20.9531 29.1719 21.3359 23.5859 21.3359 23.5859C21.3359 23.5859 21.3281 17.9766 26.9453 17.9766C32.8594 17.9844 32.0312 24.3203 32.0312 24.3203Z" fill="white"/>
<path d="M17.1563 18.3828C17.1563 16.8672 16.125 16.8672 16.125 16.8672H11.875V20.125H15.8594C16.5469 20.125 17.1563 19.8984 17.1563 18.3828Z" fill="white"/>
</g>
</svg>
