<svg width="42" height="42" viewBox="0 0 42 42" fill="none" xmlns="http://www.w3.org/2000/svg">
<mask id="mask0_12_9" style="mask-type:alpha" maskUnits="userSpaceOnUse" x="3" y="3" width="36" height="36">
<circle cx="21" cy="21" r="18" fill="#D9D9D9"/>
</mask>
<g mask="url(#mask0_12_9)">
<circle cx="21.5" cy="22.5" r="17.5" fill="black"/>
<path d="M21 3C18.6362 3 16.2956 3.47714 14.1117 4.40419C11.9278 5.33123 9.94353 6.69002 8.27208 8.40297C4.89642 11.8624 3 16.5545 3 21.4469C3 29.6004 8.166 36.518 15.312 38.9714C16.212 39.119 16.5 38.5471 16.5 38.0491V34.9316C11.514 36.0384 10.452 32.4597 10.452 32.4597C9.624 30.3198 8.454 29.748 8.454 29.748C6.816 28.6043 8.58 28.6412 8.58 28.6412C10.38 28.7703 11.334 30.5412 11.334 30.5412C12.9 33.3451 15.546 32.515 16.572 32.0723C16.734 30.8732 17.202 30.0616 17.706 29.6004C13.71 29.1392 9.516 27.5528 9.516 20.5245C9.516 18.4769 10.2 16.8352 11.37 15.5254C11.19 15.0643 10.56 13.1458 11.55 10.6555C11.55 10.6555 13.062 10.1574 16.5 12.537C17.922 12.1312 19.47 11.9283 21 11.9283C22.53 11.9283 24.078 12.1312 25.5 12.537C28.938 10.1574 30.45 10.6555 30.45 10.6555C31.44 13.1458 30.81 15.0643 30.63 15.5254C31.8 16.8352 32.484 18.4769 32.484 20.5245C32.484 27.5712 28.272 29.1208 24.258 29.582C24.906 30.1538 25.5 31.2791 25.5 32.9946V38.0491C25.5 38.5471 25.788 39.1374 26.706 38.9714C33.852 36.4995 39 29.6004 39 21.4469C39 19.0244 38.5344 16.6256 37.6298 14.3876C36.7252 12.1495 35.3994 10.1159 33.7279 8.40297C32.0565 6.69002 30.0722 5.33123 27.8883 4.40419C25.7044 3.47714 23.3638 3 21 3Z" fill="white"/>
</g>
</svg>
