<svg width="42" height="42" viewBox="0 0 42 42" fill="none" xmlns="http://www.w3.org/2000/svg">
<mask id="mask0_12_15" style="mask-type:alpha" maskUnits="userSpaceOnUse" x="3" y="3" width="35" height="35">
<circle cx="20.5" cy="20.5" r="17.5" fill="#D9D9D9"/>
</mask>
<g mask="url(#mask0_12_15)">
<ellipse cx="20" cy="20.3" rx="18" ry="18.3" fill="black"/>
<path d="M25.8777 3H15.1398C5.33275 3 3 5.33275 3 15.1223V25.8602C3 35.6655 5.31525 38 15.1223 38H25.8602C35.6655 38 38 35.6848 38 25.8777V15.1398C38 5.33275 35.6848 3 25.8777 3ZM31.2555 27.9725H28.7023C27.7363 27.9725 27.4458 27.1903 25.7133 25.4578C24.2013 24 23.5625 23.818 23.1793 23.818C22.6508 23.818 22.5055 23.9632 22.5055 24.693V26.989C22.5055 27.6103 22.3043 27.9742 20.682 27.9742C19.1076 27.8684 17.5809 27.3901 16.2275 26.5787C14.8742 25.7672 13.733 24.6459 12.898 23.307C10.9155 20.8395 9.53615 17.9435 8.8695 14.8492C8.8695 14.466 9.01475 14.1195 9.7445 14.1195H12.296C12.9522 14.1195 13.1885 14.4118 13.4457 15.0855C14.6847 18.7325 16.7987 21.9035 17.6562 21.9035C17.9852 21.9035 18.1288 21.7583 18.1288 20.9375V17.182C18.0203 15.4688 17.1102 15.3235 17.1102 14.704C17.1219 14.5406 17.1968 14.3882 17.319 14.2791C17.4412 14.1699 17.6011 14.1127 17.7648 14.1195H21.7758C22.3235 14.1195 22.5055 14.3925 22.5055 15.0488V20.1168C22.5055 20.6645 22.7418 20.8465 22.9062 20.8465C23.2352 20.8465 23.489 20.6645 24.091 20.0625C25.384 18.4857 26.4404 16.7289 27.227 14.8475C27.3074 14.6215 27.4595 14.428 27.6602 14.2966C27.8608 14.1651 28.099 14.1029 28.3383 14.1195H30.8915C31.6562 14.1195 31.819 14.5028 31.6562 15.0488C30.7279 17.1285 29.5791 19.1027 28.2297 20.9375C27.955 21.3575 27.8447 21.5762 28.2297 22.068C28.4835 22.4512 29.3777 23.1985 29.9797 23.909C30.8546 24.7816 31.5811 25.7912 32.1305 26.898C32.3492 27.6085 31.9835 27.9725 31.2555 27.9725Z" fill="white"/>
</g>
</svg>
